# xmcd
#
# Track frame offsets: 
#        150
#        13524
#        26210
#        37562
#        52193
#        65291
#        77529
#        89818
#        103617
#        117047
#        127409
#        140042
#        151525
#        165086
#        179391
#        189856
#        201552
#        213063
#        225388
#        236732
#        249075
#        261270
#        271025
#        282884
#        294796
#
# Disc length: 4049 seconds
#
# Revision: 6
# Processed by: cddbd v1.5.2PL0 Copyright (c) Steve Scherf et al.
# Submitted via: ExactAudioCopy v1.3
#
DISCID=4c0fcf19
DTITLE=Various Artist - Sun Records: 25 Rare Blues Classics
DYEAR=2003
DGENRE=Blues
TTITLE0=Joe Hill Louis - Keep Your Arms Around Me
TTITLE1=Rufus Thomas Jr. - Married Woman
TTITLE2=Elven Parr's In The Groove Boys with Eddie Snow - I'm a Good M
TTITLE2=an
TTITLE3=Sleepy John Estes - Policy Man Blues
TTITLE4=Woodrow Adams - The Last Time
TTITLE5=Willie Nix - Prison Bound Blues
TTITLE6=Raymond Hill - I'm Back Pretty Baby
TTITLE7=Walter Horton - In the Mood
TTITLE8=Jimmy and Walter - Before Long
TTITLE9=Houston Stokes - We're All Gonna Do Some Wrong
TTITLE10=Earl Hooker - Blue Guitar
TTITLE11=Albert Williams - Rhumba Chillen
TTITLE12=Honeyboy Edwards - Sweet Home Chicago
TTITLE13=Little Junior's Blue Flames - Sittin' Drinkin' and Thinkin'
TTITLE14=Earl Hooker - Move on Down the Line
TTITLE15=Mose Vinson - 44 Blues
TTITLE16=Houston Boines - Carry My Business On
TTITLE17=Little Junior's Blue Flames - Feelin' Bad
TTITLE18=Hot Shot Love - Wolf Call Boogie
TTITLE19=Little Milton - Lookin' for My Baby
TTITLE20=Billy Love - Hart's Bread Boogie
TTITLE21=Pat Hare - Bonus Pay
TTITLE22=Billy "The Kid" Emerson - Little Fine Healthy Thing
TTITLE23=Rosco Gordon - Hey Hey Girl
TTITLE24=Frank Frost - Just Come on Home
EXTD=
EXTT0=
EXTT1=
EXTT2=
EXTT3=
EXTT4=
EXTT5=
EXTT6=
EXTT7=
EXTT8=
EXTT9=
EXTT10=
EXTT11=
EXTT12=
EXTT13=
EXTT14=
EXTT15=
EXTT16=
EXTT17=
EXTT18=
EXTT19=
EXTT20=
EXTT21=
EXTT22=
EXTT23=
EXTT24=
PLAYORDER=
